<svg xmlns="http://www.w3.org/2000/svg" viewBox="0 0 1680.59 1507.73"><defs><style>.cls-1{isolation:isolate;}.cls-2{fill:#dde8fe;}.cls-22,.cls-3,.cls-4{fill:#fff;}.cls-3{opacity:0.2;}.cls-13,.cls-28,.cls-4{opacity:0.5;}.cls-5{fill:#0b0754;}.cls-6{fill:#7c9af2;}.cls-7{fill:#92b5f9;}.cls-8{fill:#4951ec;}.cls-9{fill:#07085b;}.cls-10{fill:#fa7167;}.cls-11{fill:#e8605d;}.cls-12{fill:#eaf5f9;}.cls-13,.cls-16,.cls-19{fill:#bed1f9;}.cls-13,.cls-16,.cls-17,.cls-18{mix-blend-mode:multiply;}.cls-14{fill:#f3fcff;}.cls-15,.cls-18,.cls-28{fill:#daeef7;}.cls-17{fill:#06bfad;opacity:0.3;}.cls-20{fill:#feb546;}.cls-21{fill:#fb9390;}.cls-23,.cls-24{fill:#ef7f7f;}.cls-24,.cls-29{opacity:0.6;}.cls-25{fill:#333;}.cls-26{fill:#ffc0bb;}.cls-27{fill:#fbf9eb;}</style></defs><g class="cls-1"><g id="Camada_2" data-name="Camada 2"><g id="Layer_1" data-name="Layer 1"><path class="cls-2" d="M87.36,775c7.13-119.6-45.63-204.43,27.92-295.12,45.55-56.17,221.08-127.39,266.63-183.55,15.29-18.86,30.84-38,50.3-51.79,53.29-37.86,123-29.06,187-25.71,47.23,2.46,94.9,1.1,141.25-8.88C878.06,184.62,978.7,106.37,1089.38,57.08A709.08,709.08,0,0,1,1247.59,7.76c50.05-9.33,102.69-13,150.67,4.83s90.31,61,96.48,114.73c3.45,30-4.32,60.11-6.2,90.3s4.1,64.29,27.27,81.79c18.74,14.16,43.81,13.82,65,23.38,53.72,24.28,64.55,100.48,57.53,162.17s-23.06,128.25,4.54,183c7.65,15.18,18.35,28.52,25.14,44.15,8.13,18.72,10.24,39.72,11.4,60.31,6.5,115-13.23,231.54-57,336.87-7.29,17.54-15.52,35.19-28.67,48.3-16.29,16.25-38.47,23.9-56.79,37.49-20.59,15.26-35.76,37.58-55.91,53.49-37.54,29.64-87.16,33.56-133.82,36.39-130,7.89-262.24,15.59-389-16.28C814.7,1232.61,679,1146.31,531.72,1154.45c-77.36,4.28-157,34.57-230.19,7.58-36.18-13.34-67.51-41-87.28-75.82-21-36.93-20.15-82.83-43.2-118.37-15.36-23.68-40.53-36.49-56.4-59.52C89.61,872,84.76,818.6,87.36,775Z"/><path class="cls-3" d="M1664.11,974.1a774.68,774.68,0,0,0,15.17-113.94c-73.81-11.38-149.26-17-219.69-39.06-2.48-8.07,6.9-15,15.46-18.7,32.41-14.1,70.87-17.26,105.72-8.68,12.32,3,24.15,7.45,36.46,10.49,20.59,5.06,42,6.11,63.32,4.68q-.16-18.24-1.17-36.46c-.9-16-2.38-32.15-6.78-47.35-33.87.56-68,.93-101.31-4.2-49.84-7.68-98.93-27.61-148.92-20.72-30.6,4.21-58.2,18.18-87.87,26-60.24,15.76-124.82,5.24-187.69,6.51-23.6.48-48.09,2.91-68.21,13.7s-34.62,31.92-29.12,52c5.58,20.41,28.63,33,50.4,41.85a523.65,523.65,0,0,0,125.33,33.49c57.18,7.93,115.52,6.59,173.07,12.11,13.77,1.32,28.17,3.28,39.16,10.65,9,6,14.62,15,21.7,22.73,25.24,27.53,67.28,38.05,107,44.6A793.7,793.7,0,0,0,1664.11,974.1Z"/><path class="cls-4" d="M818.05,376.62c6.12-23.29,30-40.67,58.5-40.67a68.38,68.38,0,0,1,15.16,1.69c14.08-26.3,44.63-44.52,80-44.52a100.11,100.11,0,0,1,26.3,3.47c19.08-27.59,53.72-46,93.31-46,47.09,0,87.2,26.12,102.4,62.67a82.93,82.93,0,0,1,36.34-8.23c41.27,0,74.74,29.23,74.74,65.3a57.54,57.54,0,0,1-.36,6.33Z"/><path class="cls-4" d="M649.25,339.75c-1.69-6.42-8.27-11.22-16.13-11.22a19,19,0,0,0-4.18.47c-3.89-7.25-12.31-12.28-22.08-12.28a27.71,27.71,0,0,0-7.25,1c-5.26-7.61-14.82-12.69-25.73-12.69-13,0-24,7.2-28.24,17.28a22.83,22.83,0,0,0-10-2.27c-11.39,0-20.62,8.06-20.62,18a16.79,16.79,0,0,0,.1,1.75Z"/><path class="cls-4" d="M1442.07,120.79c-2.42-9.21-11.86-16.08-23.14-16.08a26.76,26.76,0,0,0-6,.67c-5.57-10.4-17.65-17.61-31.65-17.61a39.33,39.33,0,0,0-10.4,1.38c-7.54-10.91-21.24-18.21-36.9-18.21-18.62,0-34.48,10.33-40.49,24.78a32.79,32.79,0,0,0-14.36-3.25c-16.33,0-29.56,11.56-29.56,25.82a23,23,0,0,0,.14,2.5Z"/><path class="cls-4" d="M1636.65,408.78a88.82,88.82,0,0,0-53.28-17.22c-29.77,0-55.83,13.87-70.17,34.62a75.32,75.32,0,0,0-19.78-2.62c-26.64,0-49.61,13.71-60.2,33.48a51.86,51.86,0,0,0-11.4-1.27c-21.45,0-39.39,13.07-44,30.59h260.32c0-.47.11-.93.16-1.4C1641.09,460.47,1641.05,433.69,1636.65,408.78Z"/><path class="cls-4" d="M124.77,469.68h289c-4.53-17.26-22.21-30.13-43.35-30.13a50.39,50.39,0,0,0-11.23,1.25c-10.43-19.49-33.06-33-59.31-33a74.43,74.43,0,0,0-19.49,2.57A77,77,0,0,0,252.21,386C202.34,414.76,151.9,443.57,124.77,469.68Z"/><path class="cls-3" d="M1626.22,372.55c-9.37-22.05-24-40.06-45.45-49.76-21.15-9.56-46.22-9.22-65-23.38-11.5-8.68-18.76-21.45-22.93-35.8-87.81-.07-175.84,3.27-260.94-14.32-7.1-1.47-14.45-3.21-19.88-7.46-11.72-9.18-9.29-26.87,1.22-37.11S1239.7,190,1255,186.92c77.44-15.75,157.47-8.61,237.3-4,2.4-18.57,4.54-37.12,2.41-55.64a120.42,120.42,0,0,0-3.45-17.78c-78.38,2.46-156.89-7.19-235.32-5.35-9,.22-18.64.8-25.6,5.75-6.26,4.46-9,11.55-13.36,17.5-13,17.93-38.87,24.44-62.45,29.58l-256,55.78c-23.2,5-47.57,10.66-64.67,25.26-29.71,25.36-22.69,75.15,13.18,93.45,21,10.74,46.76,10.81,71.12,10.58L1031.74,341c25.88-.24,52.59-.35,76.5,8.32,22.25,8.06,40.39,23.17,62.55,31.44,24.24,9,51.41,9.24,77.76,9.31l291.54.74c22.43.06,45.57,0,66.24-7.62A82.36,82.36,0,0,0,1626.22,372.55Z"/><path class="cls-5" d="M167.74,522.75c28.69-6.31,23.36,40.32,21.44,52.81a181.75,181.75,0,0,1,25,16.51c-3.43-15-15.1-23.59-14.5-33.66.67-11.29,8.46-22.59,21-6.59,10,12.68.58,34.13-3.75,42.49a165.45,165.45,0,0,1,27.08,28c-1.56-17.87-14-29.42-12.11-40.79,2-12.44,11.87-23.84,23.78-4.22,9.84,16.21-4.45,39.93-9.71,47.67a97.93,97.93,0,0,1,8.06,12.9,323,323,0,0,1,13.31,29.87c-1-15.78-9.7-27.88-6.74-38,3.55-12.11,14.61-21.94,23.86-.46,7.31,17-7.93,37.36-14.62,45.13A318.07,318.07,0,0,1,285,733.7c3.82-14.32,0-37.3,7.59-49.23,5-7.83,10.94-8,15.11-6.82a11.86,11.86,0,0,1,7.7,7.69c7.69,21.64-21,45.19-29.87,51.86a322.1,322.1,0,0,1,2.94,61c2-7.4,5-18.57,6.39-24.44,2.11-9.25,9.22-20.77,17-23.72a8.93,8.93,0,0,1,.95-.33c6-1.82,11.83,1.83,14.05,8.06,8.7,24.36-30.23,43.21-38.73,47,0,.12,0,.25,0,.37-3.05,43.63-13.8,71.37-14.26,72.53l-3.7-1.63c.1-.27,10.32-26.69,13.63-67.46-34.22-17-36.43-44-28.74-51.08,8-7.29,22.92-5.73,23.72,13.48.47,11.14,3.27,22.56,5.54,30.19a317,317,0,0,0-2.65-62.22C230.93,735,237.9,699.73,250,695.16s18.37,3,21.79,18.47a67,67,0,0,0,9.39,22.21,314.65,314.65,0,0,0-14.64-58.24c-8,5.36-29.44,17.51-42.08,4.95-15.79-15.69-4.68-25.46,6.44-26.33,10.23-.8,18.94,14.72,34.57,18.43a316.51,316.51,0,0,0-14.95-34.34c-.09-.19-5.13-10.22-16.61-23.33-7.53,6.48-27.43,21.28-41.41,10.78-17.55-13.19-7.54-24.38,3.48-26.82,9.84-2.18,20,11,35.24,13a173.07,173.07,0,0,0-43.45-34c-7.86,6.66-27.26,20.68-40.95,10.39-17.56-13.19-7.55-24.38,3.47-26.82,10-2.21,20.26,11.34,35.88,13.13l.21-.44c-4.24-4.28-13.27-13.3-17.8-17.36-6-5.41-11.19-16.48-9.38-25A15.23,15.23,0,0,1,167.74,522.75Z"/><path class="cls-6" d="M121.85,747.91,64.62,726c-6.86-43.5-10.12-80.33-10.12-80.33,70.5,8.58,123.19,34.64,162.56,68.81l3,70.38,22.48-45.2c91.21,102.27,91,248.73,91,248.73s-192.64-94-228-129.12C91.94,845.68,81.22,810.74,73.2,773,93.85,763.91,121.85,747.91,121.85,747.91Z"/><path class="cls-7" d="M54.5,645.65s218,201.5,279,342.72c0,0-192.64-94-228-129.12C91.94,845.68,81.22,810.74,73.2,773c20.65-9.05,48.65-25.05,48.65-25.05L64.62,726C57.76,682.48,54.5,645.65,54.5,645.65Z"/><path class="cls-2" d="M16.29,708.2C33.92,694,46.23,728,49.19,737.27a140.41,140.41,0,0,1,22.92,2.81C64.6,730.92,53.6,729,50.56,721.84c-3.41-8-1.91-18.48,12.25-11.76,11.22,5.33,12.1,23.34,12,30.59a127.18,127.18,0,0,1,28.28,10c-7.21-11.8-19.73-15.5-22.34-24-2.86-9.28,0-20.51,15-11.07,12.35,7.81,10.62,29.07,9.65,36.21a76.28,76.28,0,0,1,10,6.13,248,248,0,0,1,19.43,16c-6.13-10.53-16.26-15.91-17.67-23.89-1.71-9.56,2.55-20.14,16.29-8.49,10.87,9.21,7.34,28.48,5.39,36.14a244.48,244.48,0,0,1,30.74,35.68c-2.27-11.19-12.77-25.73-11.64-36.55.74-7.11,4.79-9.3,8.08-9.89a9.12,9.12,0,0,1,7.95,2.67c12.72,12.28,1,38.35-2.82,46a248.2,248.2,0,0,1,22.93,41c-1.13-5.79-2.88-14.53-4-19-1.72-7.1-.76-17.48,3.56-22.18.18-.19.36-.38.54-.55,3.5-3.3,8.79-2.8,12.46.74,14.35,13.82-6,40.17-10.6,45.69a2,2,0,0,0,.11.26c12.85,31.14,15,54,15,54.92l-3.11.14c0-.22-2-22-13.73-51.2-29.44,0-40.22-17.87-37.33-25.38,3-7.76,13.84-11.81,21,1.16a100,100,0,0,0,14.17,18.93,244.32,244.32,0,0,0-23.16-42c-36.3,14.69-43.58-12-36.82-19.33s13.7-4.25,21.36,5.27a51.8,51.8,0,0,0,14.09,12.09,241.85,241.85,0,0,0-30.06-35.14c-3.71,6.45-14.3,22.16-27.32,17.83-16.27-5.41-12-16-4.59-20.36,6.78-4.06,18.11,3.66,30.16.85a245.18,245.18,0,0,0-22.08-18.55c-.13-.1-7-5.3-19.45-10.4-3,7-11.63,24.08-24.87,21.63-16.63-3.08-13.56-14.23-6.8-19.69,6-4.88,17.54.71,28.78-3.09a133.3,133.3,0,0,0-41.61-8.53C46.6,748.12,38,764.44,25.05,762c-16.63-3.08-13.57-14.23-6.8-19.7,6.12-4.94,17.86.89,29.25-3.24v-.37c-4.39-1.5-13.71-4.63-18.22-5.87-6-1.66-13.38-7.53-15.06-14.06A11.73,11.73,0,0,1,16.29,708.2Z"/><path class="cls-8" d="M0,821.65a280.85,280.85,0,0,1,116.78.6c5.44,15.91,12.36,34.82,12.36,34.82l11.75-28.43c131.91,41.12,207.92,167,207.92,167-92.33,20.14-161.17,10-212.15-13.3.55-11.24,1.61-27.92,1.61-27.92L120.58,974.3a240.87,240.87,0,0,1-58.82-45.51C71,918.53,81.2,906.64,81.2,906.64l-33.73,5.75C11,866.75,0,821.65,0,821.65Z"/><path class="cls-9" d="M136.66,982.37c.55-11.24,1.61-27.92,1.61-27.92L120.58,974.3a240.87,240.87,0,0,1-58.82-45.51C71,918.53,81.2,906.64,81.2,906.64l-33.73,5.75C11,866.75,0,821.65,0,821.65c157.52,37.33,348.81,174,348.81,174C256.48,1015.81,187.64,1005.63,136.66,982.37Z"/><path class="cls-6" d="M1518,752.94l37.68-19.6c1.3-30.49.65-56.11.65-56.11-47.87,11.46-69.63,21.16-94,47.78L1458,765.6l-16.25-23.46c-54.76,77.59-50.58,193-50.58,193S1516.44,855.3,1538,828.32c8.32-10.42,13-35.32,15.5-62C1538.57,761.75,1518,752.94,1518,752.94Z"/><path class="cls-7" d="M1556.37,677.23s-134.28,155.89-165.18,257.92c0,0,125.25-79.85,146.81-106.83,8.32-10.42,13-35.32,15.5-62-14.93-4.61-35.46-13.42-35.46-13.42l37.68-19.6C1557,702.85,1556.37,677.23,1556.37,677.23Z"/><path class="cls-10" d="M1607.73,794.13a194.86,194.86,0,0,0-80.35,9.59c-2.5,11.39-5.78,24.95-5.78,24.95L1511.27,810c-87.58,38.69-130,131.36-130,131.36,65.15,6.6,111.75-5.82,145-25.85-1.27-7.69-3.31-19.09-3.31-19.09l13.74,12.28a166.94,166.94,0,0,0,36.93-36c-7.2-6.33-15.13-13.72-15.13-13.72l23.67,1.31C1603.71,826.05,1607.73,794.13,1607.73,794.13Z"/><path class="cls-11" d="M1526.28,915.53c-1.27-7.69-3.31-19.09-3.31-19.09l13.74,12.28a166.94,166.94,0,0,0,36.93-36c-7.2-6.33-15.13-13.72-15.13-13.72l23.67,1.31c21.53-34.29,25.55-66.21,25.55-66.21-105.52,38.09-226.48,147.25-226.48,147.25C1446.4,948,1493,935.56,1526.28,915.53Z"/><polygon class="cls-5" points="1422.56 496.06 866.11 372.82 866.11 1244.87 1422.56 1362.33 1422.56 496.06"/><polygon class="cls-5" points="1437.12 1362.11 1422.56 1362.33 1422.56 490.21 1437.12 490 1437.12 1362.11"/><polygon class="cls-8" points="866.11 372.82 872.5 367.99 1437.12 490 1422.56 496.06 866.11 372.82"/><polygon class="cls-5" points="309.67 496.06 866.11 372.82 866.11 1244.87 309.67 1362.33 309.67 496.06"/><path class="cls-12" d="M333,504.31,827.56,381.49s26,10.92,38.55,9.4l-235,196.45s-162.86,21.1-167,14.08S333,504.31,333,504.31Z"/><polygon class="cls-7" points="333.01 1358.23 396.03 1386.42 396.03 532.5 333.01 504.31 333.01 1358.23"/><polygon class="cls-2" points="866.11 1244.87 396.03 1386.42 396.03 532.44 866.11 390.89 866.11 1244.87"/><polygon class="cls-13" points="819.01 530.45 443.13 643.64 443.13 582.13 819.01 468.95 819.01 530.45"/><polygon class="cls-13" points="819.01 557.26 582.57 628.46 582.57 617.42 819.01 546.22 819.01 557.26"/><polygon class="cls-13" points="819.01 584.86 582.57 656.06 582.57 645.02 819.01 573.82 819.01 584.86"/><polygon class="cls-13" points="819.01 612.46 582.57 683.66 582.57 672.62 819.01 601.42 819.01 612.46"/><polygon class="cls-13" points="819.01 640.06 582.57 711.25 582.57 700.22 819.01 629.02 819.01 640.06"/><polygon class="cls-13" points="819.01 667.66 582.57 738.85 582.57 727.81 819.01 656.62 819.01 667.66"/><polygon class="cls-13" points="819.01 695.26 582.57 766.45 582.57 755.41 819.01 684.22 819.01 695.26"/><polygon class="cls-13" points="819.01 722.85 582.57 794.05 582.57 783.01 819.01 711.82 819.01 722.85"/><polygon class="cls-13" points="819.01 750.45 582.57 821.65 582.57 810.61 819.01 739.41 819.01 750.45"/><polygon class="cls-13" points="819.01 778.05 582.57 849.25 582.57 838.21 819.01 767.01 819.01 778.05"/><polygon class="cls-13" points="819.01 805.65 582.57 876.85 582.57 865.81 819.01 794.61 819.01 805.65"/><polygon class="cls-13" points="819.01 833.25 443.13 946.43 443.13 935.39 819.01 822.21 819.01 833.25"/><polygon class="cls-13" points="631.07 917.44 443.13 974.03 443.13 962.99 631.07 906.4 631.07 917.44"/><polygon class="cls-13" points="631.07 945.04 443.13 1001.63 443.13 990.59 631.07 934 631.07 945.04"/><polygon class="cls-13" points="631.07 972.64 443.13 1029.23 443.13 1018.19 631.07 961.6 631.07 972.64"/><polygon class="cls-13" points="631.07 1000.24 443.13 1056.83 443.13 1045.79 631.07 989.2 631.07 1000.24"/><polygon class="cls-13" points="631.07 1027.84 443.13 1084.43 443.13 1073.39 631.07 1016.79 631.07 1027.84"/><polygon class="cls-13" points="631.07 1055.43 443.13 1112.02 443.13 1100.98 631.07 1044.39 631.07 1055.43"/><polygon class="cls-13" points="631.07 1083.03 443.13 1139.62 443.13 1128.58 631.07 1071.99 631.07 1083.03"/><polygon class="cls-13" points="631.07 1110.63 443.13 1167.22 443.13 1156.18 631.07 1099.59 631.07 1110.63"/><polygon class="cls-13" points="631.07 1138.23 443.13 1194.82 443.13 1183.78 631.07 1127.19 631.07 1138.23"/><polygon class="cls-13" points="819.01 1109.23 443.13 1222.42 443.13 1211.38 819.01 1098.2 819.01 1109.23"/><polygon class="cls-13" points="819.01 1136.84 443.13 1250.02 443.13 1238.98 819.01 1125.8 819.01 1136.84"/><polygon class="cls-13" points="819.01 1164.43 443.13 1277.62 443.13 1266.58 819.01 1153.39 819.01 1164.43"/><polygon class="cls-13" points="443.13 918.84 567.02 881.53 567.02 622.1 443.13 659.41 443.13 918.84"/><polygon class="cls-13" points="644.34 1134.23 819.01 1081.64 819.01 849.81 644.34 902.4 644.34 1134.23"/><path class="cls-14" d="M1399.22,504.31,904.67,381.49s-26,10.92-38.56,9.4l235.05,196.45s162.86,21.1,167,14.08S1399.22,504.31,1399.22,504.31Z"/><polygon class="cls-7" points="1399.22 1358.23 1336.2 1386.42 1336.2 532.5 1399.22 504.31 1399.22 1358.23"/><polygon class="cls-15" points="866.11 1244.87 1336.2 1386.42 1336.2 532.44 866.11 390.89 866.11 1244.87"/><polygon class="cls-2" points="866.39 1244.87 1336.48 1386.42 1336.48 532.44 866.39 390.89 866.39 1244.87"/><polygon class="cls-13" points="913.5 530.45 1289.38 643.64 1289.38 582.13 913.5 468.95 913.5 530.45"/><polygon class="cls-13" points="913.5 557.26 1149.94 628.46 1149.94 617.42 913.5 546.22 913.5 557.26"/><polygon class="cls-13" points="913.5 584.86 1149.94 656.06 1149.94 645.02 913.5 573.82 913.5 584.86"/><polygon class="cls-13" points="913.5 612.46 1149.94 683.66 1149.94 672.62 913.5 601.42 913.5 612.46"/><polygon class="cls-13" points="913.5 640.06 1149.94 711.25 1149.94 700.22 913.5 629.02 913.5 640.06"/><polygon class="cls-13" points="913.5 667.66 1149.94 738.85 1149.94 727.81 913.5 656.62 913.5 667.66"/><polygon class="cls-13" points="913.5 695.26 1149.94 766.45 1149.94 755.41 913.5 684.22 913.5 695.26"/><polygon class="cls-13" points="913.5 722.85 1149.94 794.05 1149.94 783.01 913.5 711.82 913.5 722.85"/><polygon class="cls-13" points="913.5 750.45 1149.94 821.65 1149.94 810.61 913.5 739.41 913.5 750.45"/><polygon class="cls-13" points="913.5 778.05 1149.94 849.25 1149.94 838.21 913.5 767.01 913.5 778.05"/><polygon class="cls-13" points="913.5 805.65 1149.94 876.85 1149.94 865.81 913.5 794.61 913.5 805.65"/><polygon class="cls-13" points="913.5 833.25 1289.38 946.43 1289.38 935.39 913.5 822.21 913.5 833.25"/><polygon class="cls-13" points="1101.44 917.44 1289.38 974.03 1289.38 962.99 1101.44 906.4 1101.44 917.44"/><polygon class="cls-13" points="1101.44 945.04 1289.38 1001.63 1289.38 990.59 1101.44 934 1101.44 945.04"/><polygon class="cls-13" points="1101.44 972.64 1289.38 1029.23 1289.38 1018.19 1101.44 961.6 1101.44 972.64"/><polygon class="cls-13" points="1101.44 1000.24 1289.38 1056.83 1289.38 1045.79 1101.44 989.2 1101.44 1000.24"/><polygon class="cls-13" points="1101.44 1027.84 1289.38 1084.43 1289.38 1073.39 1101.44 1016.79 1101.44 1027.84"/><polygon class="cls-13" points="1101.44 1055.43 1289.38 1112.02 1289.38 1100.98 1101.44 1044.39 1101.44 1055.43"/><polygon class="cls-13" points="1101.44 1083.03 1289.38 1139.62 1289.38 1128.58 1101.44 1071.99 1101.44 1083.03"/><polygon class="cls-13" points="1101.44 1110.63 1289.38 1167.22 1289.38 1156.18 1101.44 1099.59 1101.44 1110.63"/><polygon class="cls-13" points="1101.44 1138.23 1289.38 1194.82 1289.38 1183.78 1101.44 1127.19 1101.44 1138.23"/><polygon class="cls-13" points="913.5 1109.23 1289.38 1222.42 1289.38 1211.38 913.5 1098.2 913.5 1109.23"/><polygon class="cls-13" points="913.5 1136.84 1289.38 1250.02 1289.38 1238.98 913.5 1125.8 913.5 1136.84"/><polygon class="cls-13" points="913.5 1164.43 1289.38 1277.62 1289.38 1266.58 913.5 1153.39 913.5 1164.43"/><polygon class="cls-13" points="1289.38 918.84 1165.48 881.53 1165.48 622.1 1289.38 659.41 1289.38 918.84"/><polygon class="cls-13" points="1088.17 1134.23 913.5 1081.64 913.5 849.81 1088.17 902.4 1088.17 1134.23"/><polygon class="cls-5" points="295.11 1362.11 309.67 1362.33 309.67 490.21 295.11 490 295.11 1362.11"/><polygon class="cls-8" points="866.11 372.82 859.73 367.99 295.11 490 309.67 496.06 866.11 372.82"/><path class="cls-9" d="M911.78,376.55c-17.83-6.35-32-8.32-41.29-8.8-5.62-.52-22.87-1-49.48,8.49a31.21,31.21,0,0,0,4.85,3.92h0a59,59,0,0,0,24.44,9.21C886.12,396.87,911.78,376.55,911.78,376.55Z"/><polygon class="cls-16" points="893.73 385.58 1376.2 514.61 1383.51 1365.26 1367.71 1377.75 1367.71 518.4 893.73 385.58"/><path class="cls-11" d="M1245.91,1506.53,871,1375.08l297-163.84,383.53,137.13-288.32,156.77A21.32,21.32,0,0,1,1245.91,1506.53Z"/><path class="cls-2" d="M900.11,1232.73s56.4,65.23-8.83,136.59l353.28,132.76a24.12,24.12,0,0,0,25.27-5.25l12.82-12.4s44.51-122,44.51-125.08-89-75.21-89-75.21-146.57-17.65-150.41-17.65S900.11,1232.73,900.11,1232.73Z"/><path class="cls-16" d="M1284.18,1462.18c-2.3,0-262.44-86-262.44-86s259.37,94.29,260.14,92S1284.18,1462.18,1284.18,1462.18Z"/><path class="cls-11" d="M880.15,1229.28v8L1253.1,1365.1s23,28.78,20.72,67.92-10.78,70-23,70.48c0,0,7.75.64,11.66-1.78s13-10.57,13-10.57,15.45-69.64,16.21-71.37-8.05-58.51-14-62.73-1-10.94-29.16-16.12S998.14,1236,992.77,1237.33s-51.42-.76-53.91,0S880.15,1229.28,880.15,1229.28Z"/><path class="cls-11" d="M1258.86,1361.65s47.48,80.59,0,145.24L1575,1335.56s37.22-76.36-10.74-124.32Z"/><polygon class="cls-10" points="1258.86 1361.65 880.15 1229.28 1222.02 1113.02 1564.28 1211.24 1258.86 1361.65"/><path class="cls-16" d="M1198.23,1387.74l-275.59-95.89q.15,3,.09,6.16Z"/><path class="cls-16" d="M919.51,1320.45c-.76,2.81-1.67,5.67-2.75,8.55L1119,1395Z"/><path class="cls-8" d="M1198.52,1319.86,1581,1206.28l-287.55-141.57L902.07,1183.2l279.31,135.46A24,24,0,0,0,1198.52,1319.86Z"/><path class="cls-2" d="M1560.07,1083.27s-60.15,56.37,1,118L1200.13,1316c-8.92,2.83-18.65,1.07-25-4.54l-12.1-10.71s-37.49-105.43-37.31-108.09,93.34-65,93.34-65,147.59-15.25,151.43-15.25S1560.07,1083.27,1560.07,1083.27Z"/><path class="cls-16" d="M1162.8,1281.54c2.3,0,267.39-74.27,267.39-74.27s-264.8,81.48-265.44,79.49S1162.8,1281.54,1162.8,1281.54Z"/><path class="cls-8" d="M1580.22,1080.29l-.46,7-380.3,110.41s-24.67,24.86-24.62,58.68,6.75,60.54,19,60.91c0,0-7.79.55-11.56-1.54s-12.41-9.14-12.41-9.14-11.44-60.17-12.1-61.67,11.42-50.56,17.61-54.2,1.59-9.45,30.09-13.93,256.39-90.68,261.69-89.52,51.46-.66,53.91,0S1580.22,1080.29,1580.22,1080.29Z"/><path class="cls-8" d="M1193.91,1194.67s-52.12,69.64-8.36,125.5l-306.3-148s-32.83-66,17.89-107.42Z"/><polygon class="cls-6" points="1193.91 1194.67 1580.22 1080.29 1245.04 979.83 897.14 1064.71 1193.91 1194.67"/><path class="cls-16" d="M1253,1217.22l281.11-82.86c-.22,1.74-.36,3.52-.44,5.32Z"/><path class="cls-16" d="M1535.62,1159.07a72.33,72.33,0,0,0,2.26,7.4l-206,57Z"/><path class="cls-17" d="M948.62,1087.25s-51.57,53.79-11.26,113.06l22.81,10.93s-29.33-70.89,14.25-112.69Z"/><path class="cls-7" d="M1286.6,1181.12,968,1073l232-134.17,326.12,112.79L1300.67,1180A17.18,17.18,0,0,1,1286.6,1181.12Z"/><path class="cls-15" d="M981.16,956.25s51.38,53.55,3.11,112l300.88,109.18c7.44,2.7,15.38,1,20.41-4.29l9.6-10.16s27.36-100.06,27.13-102.57-79-61.76-79-61.76-122-14.6-125.14-14.6S981.16,956.25,981.16,956.25Z"/><path class="cls-18" d="M1314.73,1144.77c-1.89,0-222.55-70.71-222.55-70.71s220.66,77.55,221.12,75.66S1314.73,1144.77,1314.73,1144.77Z"/><path class="cls-7" d="M964.47,953.4l.61,6.61,316.69,105.1s21.14,23.63,22.22,55.73-3.55,57.46-13.62,57.8c0,0,6.43.53,9.47-1.45s9.91-8.67,9.91-8.67,7.42-57.11,7.92-58.53-11.08-48-16.3-51.47-1.62-9-25.23-13.24S1062.09,959,1057.78,960.1s-42.38-.67-44.38-.05S964.47,953.4,964.47,953.4Z"/><path class="cls-7" d="M1286.25,1062.28s45.21,66.15,11,119.14l247.21-140.3s24.83-62.6-18.29-102Z"/><polygon class="cls-19" points="1286.25 1062.28 964.47 953.4 1237.03 858.29 1526.21 939.14 1286.25 1062.28"/><path class="cls-18" d="M1238.33,1083.64l-234.13-78.88c.23,1.66.41,3.34.54,5.06Z"/><path class="cls-18" d="M1003.8,1028.22q-.62,3.46-1.62,7l171.49,54.32Z"/><polygon class="cls-7" points="1258.66 1029.88 1072.41 964.55 1109.23 948.52 1306.54 1007.01 1258.66 1029.88"/><path class="cls-10" d="M1039.74,1041.2s-19.21,19.48-10.45,45.76c0,0,5.84-13.63,11.68-17.52,0,0-1,16.55,5.84,23.36,0,0,6-36.66,24.42-40.23Z"/><path class="cls-20" d="M1258.86,1255.13s11.81,13.83,10.83,31.35c0,0,6.49-9,8.11-15.67a24.64,24.64,0,0,1,10.39,10.81s7.27-18.56-.26-34.59Z"/><path class="cls-6" d="M1076.49,1345.38s-19.94,26.75-13.13,69.58c0,0,6.81-17.52,22.38-27.26,0,0,6.82,28.23,10.71,38,0,0,15.56-56.79,34.06-61.48Z"/><path class="cls-21" d="M592.68,272.33c24.54,7,110.88-12.88,139.18-19.75l1-.48,10-7c8.27-5.47,16.75-11.81,17.61-11.45,1.22.5,1.25,1.64-5.47,11.16a1,1,0,0,0,.74,1.51c5.86.22,24.3,1,24.59,2.53.35,1.79-16.15,1.48-16.74,3.06s15.51,1.49,15.57,3.46-14.63,1.58-14.89,2.42,13.76,2.73,14.49,3.87-14.48.95-15.09,1.88,9.86,4.56,9.65,5.49,2.46.66-23.43-.75c0,0-6.47-.53-8.94-.88l-6.43,2.95c-52.15,30.24-150.78,33-150.78,33Z"/><path class="cls-6" d="M530,253.59s-12,11.35-19.5,3.48c0,0-21.59,4.68-19.79-14.33,0,0-14.71-8.9-9.29-26,0,0-13.2-12,1.24-25.89,0,0-9.51-16.23,8.75-21.7,0,0,2.36-27.78,28.3-20.35,0,0,19.56-21.08,36.41-7.83,0,0,17.59-5.79,24.94,14.43,0,0,18.67,6.26,11.84,29.19,0,0,18.14,20,6.12,40.28,0,0,6.36,27.13-24.15,23.65S530,253.59,530,253.59Z"/><path class="cls-10" d="M615.39,309.49s-31.9,11.22-58.65,4a11.3,11.3,0,0,1-8.45-10.95c.06-5.4-9.73-27.83,1.39-30.88,23.83-6.54,59-4.94,59-4.94S620.05,283.11,615.39,309.49Z"/><path class="cls-10" d="M528.58,264.62S502,269.34,492.74,280s-33,128.73-27.3,149.85l112.21-16.08s12.1-94.33,9.66-121.55-32.14-26.08-32.14-26.08Z"/><path class="cls-22" d="M587.22,315.39c.42-14.29,0-24.15,0-24.15C588.79,301.07,587.22,315.39,587.22,315.39Z"/><path class="cls-22" d="M489.21,352.85a26.62,26.62,0,0,0,10.58,2.31c5-7.92,12-28,11.42-45.29C500.53,327.52,489.21,352.85,489.21,352.85Z"/><path class="cls-8" d="M656.81,525.77l-4.72,16.37a2.55,2.55,0,0,0,1.75,3.15l38.42,11a2.89,2.89,0,0,0,3-4.68l-19.35-22.07S667.39,535.46,656.81,525.77Z"/><path class="cls-5" d="M586.74,416.38s77.07-21.67,86.07-20.7c10,1.09,37.58,18,6.37,138.49,0,0-15,4.79-24.15-5.59l.63-68.62s-55.74,30.55-72.94,23.11S586.74,416.38,586.74,416.38Z"/><path class="cls-8" d="M533.06,525.34l-10.3,13.6a2.55,2.55,0,0,0,.5,3.57l31.87,24a2.89,2.89,0,0,0,4.45-3.31l-10.09-27.56S539.43,538.2,533.06,525.34Z"/><path class="cls-5" d="M468.24,429.46s-1.51,79,78.51,49.17l-16,49.63S542.22,540,550.2,538.61c7.36-1.29,83.39-93.89,39.2-126.68a38,38,0,0,0-22-7.25C547.37,404.35,495.39,405.92,468.24,429.46Z"/><path class="cls-21" d="M528.89,276.27h0l-.7-26,25.74-.29,5.22,22.67S544.64,289.27,528.89,276.27Z"/><path class="cls-23" d="M557.42,265.16,553.93,250l-25.74.29.34,12.74C534.16,267.49,543.84,271.66,557.42,265.16Z"/><path class="cls-23" d="M578,216.5c-.81,4.39,1.38,8.48,4.91,9.12s7-2.4,7.87-6.8-1.39-8.48-4.91-9.12S578.77,212.1,578,216.5Z"/><path class="cls-21" d="M581.7,240.44a33.47,33.47,0,0,0,1.41-6.07,64.17,64.17,0,0,0,.17-16.29c-.12-1.05-.17-2.11-.2-3.18a34.69,34.69,0,1,0-68.64,8.23,7.51,7.51,0,0,0-6.72.87c-3.66,2.63-4,8.46-.66,13s8.93,6.1,12.59,3.47A7,7,0,0,0,521,239.2c5.13,16.22,21.41,26.16,37.7,22.48a31.24,31.24,0,0,0,18.89-12.89,14.24,14.24,0,0,0,.93-1.32A29.61,29.61,0,0,0,581.7,240.44Z"/><path class="cls-23" d="M556,214.12c.59,1.89,1.12,3.75,1.72,5.55a12.87,12.87,0,0,0,2.39,4.66l.2.17.25.2a4.23,4.23,0,0,1,.7.58,3.91,3.91,0,0,1,1,1.61,4.11,4.11,0,0,1-.61,3.49,6.71,6.71,0,0,1-5.45,2.7,8.29,8.29,0,0,0,4.11-3.48,2.64,2.64,0,0,0,.16-2.11,2.14,2.14,0,0,0-.57-.81,2.93,2.93,0,0,0-.43-.34l-.33-.25-.37-.3A7.63,7.63,0,0,1,557,223a15.61,15.61,0,0,1-.79-2.94A20.36,20.36,0,0,1,556,214.12Z"/><path class="cls-5" d="M545.55,219.7a3,3,0,1,1-3.62-2.28A3,3,0,0,1,545.55,219.7Z"/><path class="cls-5" d="M571.29,215.62a3,3,0,1,1-3.61-2.27A3,3,0,0,1,571.29,215.62Z"/><path class="cls-6" d="M547.41,212.12a30.61,30.61,0,0,0-4.55.16,15.17,15.17,0,0,0-4.08,1,14.39,14.39,0,0,0-3.62,2.11c-.62.39-1.09,1-1.7,1.42s-1.06,1.09-1.71,1.62a12.65,12.65,0,0,1,.76-2.3,10.56,10.56,0,0,1,1.33-2.07,9.81,9.81,0,0,1,4-3,10.3,10.3,0,0,1,5-.69A9.39,9.39,0,0,1,547.41,212.12Z"/><path class="cls-6" d="M560.67,210a9.3,9.3,0,0,1,3.71-3.14,10.29,10.29,0,0,1,4.91-1,9.81,9.81,0,0,1,4.81,1.45,10.31,10.31,0,0,1,1.95,1.5,12.85,12.85,0,0,1,1.48,1.91c-.78-.27-1.44-.66-2.15-.94s-1.36-.61-2.07-.77a14.13,14.13,0,0,0-4.11-.77,15.39,15.39,0,0,0-4.19.4A31,31,0,0,0,560.67,210Z"/><path class="cls-21" d="M498.45,332.59C483,352.94,470,440.76,466.05,469.67l.08,1.1L469,482.64c2.07,9.71,4.87,19.93,4.22,20.61-.91.95-2,.57-8.37-9.18a1,1,0,0,0-1.68.14c-2.34,5.39-9.81,22.31-11.31,22-1.8-.33,4.51-15.61,3.25-16.74s-7,13.93-8.88,13.27,3.87-14.22,3.18-14.78-7.56,11.86-8.89,12.12,4.41-13.87,3.77-14.77-7.84,7.54-8.63,7-1.51,2.06,9.25-21.58c0,0,2.84-5.85,4.08-8l-.4-7.08C439.49,406,472.86,312.9,472.86,312.9Z"/><path class="cls-10" d="M457.88,340.77s8.31-45.89,34.25-62.36c11-7,17.25-9.58,22.17-6.73,5.17,3-6.09,14.14-3.84,26.72,4.47,24.92-11.6,56.21-11.6,56.21S477.09,352.17,457.88,340.77Z"/><path class="cls-6" d="M516.28,182l-.39,22.42L568,190.38s5.87,4.94,6.73,4.81,7.46-3.14,7.17-4.09-19.1-24.56-19.1-24.56S545.51,171,544,171.42,516.28,182,516.28,182Z"/><path class="cls-10" d="M513.75,214.75s26.57-23.05,67.19-11.05a51.3,51.3,0,0,0-2-10.59s-27.58-17.84-66.39,10.43C512.51,203.54,510.44,206.44,513.75,214.75Z"/><path class="cls-22" d="M570,236.05c-.6,5.19-5.16,9.49-11,10s-11.11-2.89-12.63-7.89Z"/><path class="cls-5" d="M386.69,1407.1v17.71a2.66,2.66,0,0,1-2.66,2.65H342.5a3,3,0,0,1-1.62-5.53l22.76-14.83S373.33,1413.77,386.69,1407.1Z"/><path class="cls-5" d="M478.28,1407.1v17.71a2.65,2.65,0,0,0,2.65,2.65h41.54a3,3,0,0,0,1.62-5.53l-22.76-14.83S491.64,1413.77,478.28,1407.1Z"/><polygon class="cls-21" points="429.96 959.7 429.84 988.66 458.02 984.33 453.32 951.76 429.96 959.7"/><path class="cls-5" d="M467.61,981s20,4.92,36.62,17.43,50.11,36.62,48.51,61.18-28.1,62.95-28.1,62.95l-8.87-18.39s8-43.21,6.23-44.8-36.19-32.67-36.19-32.67Z"/><path class="cls-8" d="M513.91,1150.22c-.07-3.23,8.34,6.28,8.19,3.71-3.31-53.59-108.17-8.66-108.17-8.66L388.34,1164l-33.49,248.19s16.87,6,31.94,2l62.65-213.79,7.87-3S492.31,1173,513.91,1150.22Z"/><path class="cls-8" d="M522.08,1141.75c-21.6,22.77-64.77,55.61-64.77,55.61h0l21,215.26s20.68,3,30.59-2.31C508.89,1410.31,523.49,1205.65,522.08,1141.75Z"/><path class="cls-6" d="M388.34,1164l-4.13,35.44c10.92,4.22,37.52,8.73,57.56-35,6.32-13.8,8-23.74,6.78-30.88a285.64,285.64,0,0,0-34.62,11.73Z"/><path class="cls-2" d="M484.55,1019.36c-.88,0-10.76-21.81-16.06-33.66a7.64,7.64,0,0,0-9.73-4c-14.35,5.59-30.21-.1-30.21-.1S381,1147.74,400.61,1160.79c51.48,34.22,110.58-5.23,110.58-5.23s7.58-31.06,7.58-32.27S485.76,1019.36,484.55,1019.36Z"/><path class="cls-5" d="M428.55,981.58S419.46,995,418.6,994.8c-6.16-1.12-23.16-16.22-26.07,33.83,1.62,15.31-13,139.16-13,139.16,39.55,18.53,50.7,7.71,50.7,7.71C438.34,1138,428.55,981.58,428.55,981.58Z"/><path class="cls-5" d="M428.55,981.58s-25.6,3.27-44.34,12.14-52,26.68-50.71,51.5,49.11,77.36,49.11,77.36l7.21-7.22,6.4-9.76-32.87-57.95L405.49,1030Z"/><path class="cls-5" d="M472.81,984.34c12.05,13.19,36.06,54.14,55.17,178.81,0,0-21.21,12.86-45.46,14.19,0,0-6.29-164.93-24.15-195.51h0A12,12,0,0,1,472.81,984.34Z"/><path class="cls-21" d="M512.32,1098.79c6.38,4.3,10,11.92,12,18.56.08.33.17.67.24,1,1.27,5.36-1.48,6.43-2.87,6.64a1,1,0,0,1-1.05-.58c-.39-.74-.9-1.68-1.67-2.93-4.47-7.23-9.66,4.6-11.21,1.69-2-3.68,6.64-6.86,5.5-8.72-2.15-3.5-7.1,4.58-8.75,2.38-1.81-2.4,8-4.69,5.57-8.75-1.29-2.17-7.79,4.74-8.57,1.82-.82-3.07,7.39-4.33,5.95-6.82-2.13-3.68-6.68,4.57-8.5,2C497.87,1103.49,507.8,1095.74,512.32,1098.79Z"/><path class="cls-24" d="M455.49,966.75l-2.17-15-23.38,10.69,0,5.71C435.56,969.54,446.1,970.77,455.49,966.75Z"/><polygon class="cls-10" points="470.39 900.6 472.09 920.48 468.94 922.45 463.13 898.25 470.39 900.6"/><path class="cls-23" d="M466.15,918.42c-.86,4.51,1.36,8.72,5,9.41s7.23-2.4,8.1-6.9-1.36-8.72-5-9.41S467,913.92,466.15,918.42Z"/><path class="cls-21" d="M469.84,943a35.22,35.22,0,0,0,1.48-6.22,65.77,65.77,0,0,0,.28-16.7c-.11-1.08-.16-2.17-.19-3.26a35.26,35.26,0,0,0-3-13.34,35.52,35.52,0,0,0-67.39,21.14,7.69,7.69,0,0,0-6.88.83c-3.77,2.67-4.11,8.64-.77,13.34s9.11,6.34,12.87,3.67a6.72,6.72,0,0,0,1.36-1.3c5.15,16.68,21.76,27,38.46,23.41a31.84,31.84,0,0,0,19.43-13.05,14.65,14.65,0,0,0,1-1.34A30.67,30.67,0,0,0,469.84,943Z"/><path class="cls-25" d="M433,921.41a3.1,3.1,0,1,1-3.69-2.37A3.1,3.1,0,0,1,433,921.41Z"/><path class="cls-25" d="M459.34,917.47a3.1,3.1,0,1,1-3.69-2.37A3.1,3.1,0,0,1,459.34,917.47Z"/><path class="cls-10" d="M435.3,914.62a29.46,29.46,0,0,0-4.63-.5,15.71,15.71,0,0,0-4.31.51,14,14,0,0,0-4,1.72,44.55,44.55,0,0,0-3.8,2.72,10.35,10.35,0,0,1,2.72-4.12,10,10,0,0,1,4.46-2.48,10.53,10.53,0,0,1,5.11-.09A9.8,9.8,0,0,1,435.3,914.62Z"/><path class="cls-10" d="M447.63,912.59a9.67,9.67,0,0,1,3.46-3.53,10.44,10.44,0,0,1,4.86-1.55,10.05,10.05,0,0,1,5,.93,10.26,10.26,0,0,1,3.9,3,41.13,41.13,0,0,0-4.47-1.36,14,14,0,0,0-4.31-.36,15.15,15.15,0,0,0-4.24.89A28.87,28.87,0,0,0,447.63,912.59Z"/><path class="cls-10" d="M466.68,879.38s10.46-2-2.42-8.32-44.46-10-61,4.15c0,0-5.55-7.12-10.54-4s5.19,6.58,5.19,6.58-7,1.34-8.31,5.2c-1,2.86,3.27,2,5.56,1.38-3.79,1.56-14.93,12.07-.46,40.76,2.56-1.2,19.12-24.78,19.12-24.78s33.28,10.92,27.22,1.86c0,0,38.79,9.75,29.39-7.81C470.46,894.41,484.76,892.26,466.68,879.38Z"/><path class="cls-10" d="M413.85,900.36c.53,1.94-8.65,22.62-12.78,24.28a52,52,0,0,0-6.34.5c-1-5.89,8.95-22.36,8.95-22.36Z"/><path class="cls-23" d="M442.8,913.09a23.72,23.72,0,0,0,.36,6.67,18,18,0,0,0,.94,3.29,8.63,8.63,0,0,0,2,3.11c1.11.86,1.62,1.11,1.95,1.92a3,3,0,0,1-.17,2.41c-.8,1.72-2.62,3-4.61,3.94a7.56,7.56,0,0,0,6.05-3.12,4.57,4.57,0,0,0,.63-3.89,5.66,5.66,0,0,0-2.42-2.83,8.25,8.25,0,0,1-1.57-2.34,26.17,26.17,0,0,1-1.18-2.92C444.06,917.31,443.46,915.22,442.8,913.09Z"/><path class="cls-9" d="M375.22,1067.78c-3.62-6.24-7.25-12.46-11-18.64-.3-.51-.61-1-.92-1.52l2.92-1.07c3.79-1.4,7.54-2.89,11.29-4.39s7.46-3.07,11.16-4.69,7.38-3.28,11-5.08c-3.85,1.23-7.66,2.59-11.44,4s-7.54,2.89-11.29,4.39-7.46,3.06-11.16,4.69-7.38,3.27-11,5.07c2.51-.79,5-1.65,7.48-2.54l.95,1.72c3.5,6.3,7.08,12.56,10.68,18.81s7.25,12.46,11,18.64,7.47,12.33,11.33,18.43q-5-9.58-10.31-19C382.4,1080.28,378.82,1074,375.22,1067.78Z"/><path class="cls-21" d="M401.58,1112.87a.69.69,0,0,1,.35-1.16c8.23-1.74,8.76-2.36,8.37-3.21-.23-.5-7.6-1.84-14.15-3l.07,0-4.22,6.68s-6.6,7.42-6.77,7.59h0c.41.54.66.9.66.9,13,13.38,13.35,13,13.92,12.63s-3.21-7.41-2.43-7.6,8.75,7.33,8.93,6.38-6.35-8.81-5.8-9.12,8.15,7.06,9.08,6-7.66-8.87-6.57-9.42,9.69,7.67,10.39,6.56C414,1125.26,404.59,1115.84,401.58,1112.87Z"/><path class="cls-9" d="M382.61,1122.58l3.59-4.12c1.18-1.38,2.37-2.74,3.52-4.14s2.29-2.81,3.39-4.25c.54-.73,1.1-1.45,1.6-2.2s1-1.51,1.51-2.27a29.49,29.49,0,0,1-2.64,4.8,50.6,50.6,0,0,1-3.28,4.39q-1.76,2.12-3.68,4.06A52.37,52.37,0,0,1,382.61,1122.58Z"/><path class="cls-22" d="M455.34,939.86c-.16,3.91-3.66,7.5-8.49,8.4s-9.38-1.17-11-4.76Z"/><path class="cls-10" d="M1049.41,309.76s-24.14-2.3-40.13,9.24-34.67,31-75.23,18.9c0,0,19.18,23.06,44.67,25.55s18.61-18,76.61-5.94L1052.49,333Z"/><polygon class="cls-26" points="1171.5 694.98 1175.11 932.07 1181.15 949.18 1199.32 932.09 1216.68 688.93 1171.5 694.98"/><path class="cls-26" d="M1280,703.06l-45.46,0s21.28,227.66,21.12,229.08,7.66,11.64,7.66,11.64l16.56-11.63Z"/><polygon class="cls-21" points="1171.5 694.98 1175.11 932.07 1181.15 949.18 1199.32 932.09 1216.68 688.93 1171.5 694.98"/><path class="cls-21" d="M1280,703.06l-45.46,0s21.28,227.66,21.12,229.08,7.66,11.64,7.66,11.64l16.56-11.63Z"/><path class="cls-27" d="M1174.15,869l1,63.11,6,17.11,18.17-17.09,4.55-63.7C1189.94,873.77,1179.61,871.3,1174.15,869Z"/><path class="cls-27" d="M1249.94,869c3.28,35.49,5.75,62.68,5.7,63.17-.15,1.41,7.66,11.64,7.66,11.64l16.56-11.63,0-62.89A49.29,49.29,0,0,1,1249.94,869Z"/><path class="cls-8" d="M1164.76,706.6c12.91,5.18,33,10.37,55.12,5.65h0l3.09-33.33c2.31,2,3.69,3,3.69,3l3,29.26h0s24.54,9,54.57,3.45c.11-13,.14-24.54.06-33.76-.55-66.59-21.13-76.34-21.13-76.34l-35-8.89-7.7,1.32c-12.24-4-34.41-8.64-43.54,6.65-12.94,21.66-12.22,88.45-12.22,88.45S1164.66,697.43,1164.76,706.6Z"/><path class="cls-21" d="M1188.28,536.78l-32.86-15.23,3,34.81s-62.21-28.29-65.36-31.13c-1-1-2.24-3.44-3.38-6.35a63.42,63.42,0,0,1-2.74-9.45c-1.09-4.83-5.22-8.7-6.61-10a19.49,19.49,0,0,1-2.77-5.35,1,1,0,0,0-2,.1l-.34,2.18a11.11,11.11,0,0,0,.9,5.52l-.87-.33-1.44,14.64,1.75,12.8,9.84,7.41s86.68,62.46,94.61,54.31C1188.55,582,1188.28,536.78,1188.28,536.78Z"/><path class="cls-5" d="M1199.32,932.09v18a2.75,2.75,0,0,1-2.79,2.7l-43.64,0a3,3,0,0,1-1.69-5.64l23.92-15.11S1185.28,938.88,1199.32,932.09Z"/><path class="cls-5" d="M1279.86,932.13v18a2.74,2.74,0,0,1-2.79,2.7l-43.64,0a3,3,0,0,1-1.7-5.64l23.92-15.1S1265.82,938.92,1279.86,932.13Z"/><path class="cls-6" d="M1180.85,463.15s-6.73,1.6-16.48,13.65-18.43,45.37-18.43,45.37l31.08,17,20.25-40.25Z"/><path class="cls-22" d="M1268.83,655.39c-3.28,1.2-6.51,2.51-9.71,3.89s-6.36,2.86-9.5,4.36-6.25,3.07-9.34,4.68-6.16,3.23-9.19,4.93l-.24-.58a65,65,0,0,1,6.9-1.06c2.32-.23,4.64-.32,7-.32a55.63,55.63,0,0,1,7,.4l1.73.23,1.71.3.85.16.85.2,1.68.41-1.7-.33-.85-.16-.86-.13-1.71-.24-1.73-.17c-.57-.06-1.15-.09-1.73-.12s-1.15-.08-1.73-.09l-1.73,0c-.58,0-1.15,0-1.73,0-2.31,0-4.61.2-6.9.45a65,65,0,0,0-6.82,1.1l-2.06.45,1.82-1q4.56-2.58,9.2-5t9.4-4.62c3.16-1.47,6.37-2.85,9.6-4.18,1.63-.65,3.25-1.29,4.9-1.87S1267.17,655.93,1268.83,655.39Z"/><path class="cls-22" d="M1176.81,654c1.66.54,3.33,1.07,5,1.69s3.27,1.22,4.9,1.87c3.23,1.33,6.43,2.71,9.6,4.19s6.28,3,9.39,4.63,6.16,3.25,9.19,5l1.83,1-2.07-.45a61.92,61.92,0,0,0-6.81-1.1c-2.29-.26-4.6-.42-6.9-.47-.58,0-1.16,0-1.74,0l-1.73,0c-.57,0-1.15.06-1.73.08s-1.15.06-1.72.12l-1.73.16-1.72.25-.85.12-.85.17-1.71.32,1.69-.4.84-.21.86-.15,1.71-.3,1.73-.23a57.6,57.6,0,0,1,7-.4c2.33,0,4.65.1,7,.34a65,65,0,0,1,6.9,1.06l-.25.58c-3-1.7-6.11-3.32-9.18-4.94s-6.2-3.18-9.34-4.68-6.29-3-9.49-4.38S1180.09,655.23,1176.81,654Z"/><path class="cls-28" d="M1183.82,615.56c2.85.5,5.71.91,8.57,1.28s5.74.7,8.61,1c5.75.56,11.52.93,17.3,1,2.89.06,5.77.07,8.66,0s5.77-.23,8.65-.46,5.75-.58,8.6-1,5.67-1,8.47-1.77c-2.78.79-5.6,1.42-8.44,1.94s-5.73.85-8.61,1.13-5.77.42-8.66.51-5.79.09-8.68,0q-8.68-.23-17.31-1.13c-2.88-.31-5.75-.66-8.61-1.07S1186.66,616.12,1183.82,615.56Z"/><path class="cls-5" d="M1259.33,401.64s6.14-31.76-11.75-42.95-36.34-9.21-48.67-1.7-23.28,31.38-8.32,54.27l36.86-22.88Z"/><path class="cls-5" d="M1248.9,626.33a7.22,7.22,0,0,0,.47,1l.49,1,1,1.9,1.69,3.13,4.8,8.35c.66,1.27,7,12.24,8.45,14.7-1.85-2.22-4.09-4.41-5.6-6.85-.76-1.22-1.47-2.47-2.19-3.72s-1.39-2.51-2.07-3.77c-1.33-2.54-2.61-5.1-3.81-7.71-.6-1.29-1.18-2.61-1.73-3.92-.28-.67-.55-1.33-.81-2A18.17,18.17,0,0,1,1248.9,626.33Z"/><path class="cls-7" d="M1310.14,502C1296,485,1281,469.17,1267.41,460.68c-11.32-7.09-30.12-9-34.59-9-11-1.39-19-2-25,1.05-17.64,2.46-36.18,12.34-36.43,18.54-1.21,31-1.57,54.69-1.41,72.88,0,.06-.55,66-.08,80.05,0,0,71.65,15.48,108.3,6.22,0,0,6.1-86.21-2.58-109.5l3.7,4.72S1294.1,522.3,1310.14,502Z"/><path class="cls-21" d="M1308,504.7c-9.73,11.82-20.49,18.09-25.88,20.06l34.63,41.52-63.42,68.31L1264.45,654c8.82-4.27,10.82-20.49,10.82-20.49s78.47-52.41,78.48-65C1353.76,551.77,1308,504.7,1308,504.7Z"/><path class="cls-27" d="M1308.54,503.88c-.55.61-1,1.26-1.61,1.85l-1.68,1.78-.83.89-.88.85-1.76,1.7c-.6.55-1.23,1.08-1.83,1.62-1.2,1.1-2.53,2-3.79,3.08a68.3,68.3,0,0,1-8.2,5.25l-1.07.57-1.09.53c-.73.36-1.47.68-2.22,1-.37.17-.75.31-1.12.45s-.75.3-1.13.43-1,.36-1.57.52l-3.79-4.54-4.31-5.07c-2.85-3.39-5.78-6.72-8.68-10.07s-5.87-6.66-8.85-9.95-6-6.57-9.06-9.78c2.63,3.57,5.35,7.07,8.08,10.56s5.51,6.94,8.29,10.39,5.6,6.87,8.46,10.26l4.26,5.1,4.31,5.06.47.56.68-.18c.9-.24,1.69-.51,2.5-.81s1.59-.61,2.36-1,1.54-.71,2.29-1.11l1.12-.58,1.1-.63a59.05,59.05,0,0,0,8.23-5.74l1.87-1.66c.63-.54,1.21-1.13,1.8-1.71s1.18-1.16,1.75-1.77l1.64-1.85.82-.93.76-1,1.51-1.94c1-1.32,1.86-2.7,2.77-4.05Z"/><path class="cls-21" d="M1207.82,454.09s14.22,8.44,25.31,0h0l-2.6-20.59-22-4.56-.66,25.13Z"/><g class="cls-29"><path class="cls-23" d="M1208.12,442.39l.36-13.43,22.37,7,.62,5C1226.51,442.77,1217.07,445,1208.12,442.39Z"/></g><path class="cls-21" d="M1192.55,423a29.58,29.58,0,0,1-2-5.32,56.37,56.37,0,0,1-2-14.67c0-1-.09-1.93-.19-2.89a30.75,30.75,0,0,1,1.25-12.06c4.1-13.21,16.91-22.42,31.16-22.35,19.18.1,33.75,15.91,32.26,33.94a7.23,7.23,0,0,1,6.34,0c3.7,2,4.65,7.18,2.12,11.66s-7.57,6.54-11.28,4.58a6.18,6.18,0,0,1-1.37-1,30.27,30.27,0,0,1-32.38,24.62,29.43,29.43,0,0,1-19-9.47,13.42,13.42,0,0,1-1-1.07A27.15,27.15,0,0,1,1192.55,423Z"/><path class="cls-5" d="M1223.7,400.12a2.77,2.77,0,0,0,2.54,3,2.82,2.82,0,0,0,3.1-2.47,2.78,2.78,0,0,0-2.55-3A2.81,2.81,0,0,0,1223.7,400.12Z"/><path class="cls-5" d="M1199.33,399.4a2.78,2.78,0,0,0,2.55,3,2.82,2.82,0,0,0,3.09-2.47,2.78,2.78,0,0,0-2.55-3A2.81,2.81,0,0,0,1199.33,399.4Z"/><path class="cls-5" d="M1220.83,394.38a26.78,26.78,0,0,1,4.15-.91,14.27,14.27,0,0,1,4,0,13.28,13.28,0,0,1,3.78,1.1l.47.19a5.06,5.06,0,0,1,.46.24l.92.48c.62.33,1.2.75,1.89,1.09a12.36,12.36,0,0,0-1.24-1.84,10.46,10.46,0,0,0-1.67-1.51,9.43,9.43,0,0,0-4.32-1.72,10,10,0,0,0-4.65.45A9.1,9.1,0,0,0,1220.83,394.38Z"/><path class="cls-5" d="M1209.43,393.89a8.79,8.79,0,0,0-3.52-2.75,9.89,9.89,0,0,0-4.58-.86,9.34,9.34,0,0,0-4.46,1.34,10.2,10.2,0,0,0-1.81,1.36,12,12,0,0,0-1.4,1.72c.71-.28,1.32-.64,2-.92l1-.4c.17-.06.31-.15.48-.2l.49-.15a13,13,0,0,1,3.86-.76,14.38,14.38,0,0,1,4,.34A27.32,27.32,0,0,1,1209.43,393.89Z"/><path class="cls-23" d="M1213.87,393.82a20.2,20.2,0,0,1,.38,5.91,15.77,15.77,0,0,1-.49,3,7.68,7.68,0,0,1-1.47,2.94l-.34.33-.31.28c-.12.14-.31.24-.4.39a2.26,2.26,0,0,0-.51.9,2.59,2.59,0,0,0,.42,2.1,8.37,8.37,0,0,0,4.6,3,7,7,0,0,1-5.82-2.12,4,4,0,0,1-1-3.36,2.77,2.77,0,0,1,.31-.89,3.24,3.24,0,0,1,.51-.79,5.62,5.62,0,0,1,.64-.65,3.11,3.11,0,0,0,.24-.22l.18-.19a7.14,7.14,0,0,0,1.18-2.23,22.62,22.62,0,0,0,.76-2.69C1213.17,397.67,1213.49,395.76,1213.87,393.82Z"/><path class="cls-22" d="M1205.1,416.48c1,3.36,5.09,5.85,10,5.77s9-2.71,9.81-6.11Z"/><path class="cls-5" d="M1252.14,400.62a5.09,5.09,0,0,1,3.33-1.66l-1.26-10.15-3.4-6s-13-16-13.48-16.42-10.12-5.37-10.71-5.62-13.77,2.26-13.77,2.26-23.49-3.87-19.09,8.17,21.67,17.77,22.52,17.2c-2.87-2.63-3.45-10.38-3.45-10.38C1225.38,390.61,1248.54,399.32,1252.14,400.62Z"/><polygon class="cls-5" points="1049.3 309.66 1124.98 947.36 1128.68 946.95 1053.01 309.35 1049.3 309.66"/><path class="cls-21" d="M1066.71,515.15a23.43,23.43,0,0,1,.26-3.41,3.77,3.77,0,0,1,2.62-2.81l1.52-.46.14,3.42h0c-.13,2.61-.18,2.42,3.43,4,5.16,2.24,3,4.94,3,4.94s-1.43,1.92-7.74-1.24C1069.94,519.59,1066.91,518,1066.71,515.15Z"/><path class="cls-21" d="M1066.17,518.08a22.61,22.61,0,0,1,.25-3.25,3.55,3.55,0,0,1,2.5-2.67l1.44-.44.13,3.25h0c-.12,2.49-.17,2.31,3.27,3.81,4.91,2.14,2.86,4.71,2.86,4.71s-1.37,1.82-7.37-1.18C1069.25,522.31,1066.36,520.79,1066.17,518.08Z"/><path class="cls-21" d="M1067,522a19,19,0,0,1,.21-2.75,3,3,0,0,1,2.11-2.26l1.23-.37.11,2.75h0c-.11,2.1-.15,2,2.76,3.22,4.16,1.81,2.42,4,2.42,4s-1.16,1.54-6.24-1C1069.56,525.56,1067.12,524.28,1067,522Z"/><path class="cls-21" d="M1067.83,511a24.92,24.92,0,0,1,.26-3.41,3.77,3.77,0,0,1,2.62-2.81l1.52-.46.14,3.42h0c-.13,2.61-.18,2.42,3.44,4,5.15,2.24,3,4.94,3,4.94s-1.43,1.92-7.74-1.24C1071.06,515.39,1068,513.8,1067.83,511Z"/><path class="cls-23" d="M1072.37,507.69a10.77,10.77,0,0,0,.08,1.71,1.71,1.71,0,0,0,1.12,1.13c1,.5,2.17.87,3.26,1.41.26.15.53.29.78.45a6.6,6.6,0,0,1,.72.56,3.47,3.47,0,0,1,1.06,1.52,2.57,2.57,0,0,1-.1,1.87,2.61,2.61,0,0,1-.24.43,1.35,1.35,0,0,1-.43.35,3,3,0,0,1-.93.31,5.84,5.84,0,0,1-1.87,0,13.36,13.36,0,0,1-1.76-.45,20,20,0,0,1-3.28-1.45,7.29,7.29,0,0,1-2.48-2.55,4.86,4.86,0,0,1-.51-1.69,4.22,4.22,0,0,1,0-.87l.07-.86,0,.86a3.47,3.47,0,0,0,0,.85,4.41,4.41,0,0,0,.6,1.57,7,7,0,0,0,2.46,2.32,25.94,25.94,0,0,0,3.22,1.33,7.67,7.67,0,0,0,3.36.43,2.34,2.34,0,0,0,.75-.23,1.15,1.15,0,0,0,.25-.19,2.59,2.59,0,0,0,.19-.33,2,2,0,0,0,.1-1.5,3,3,0,0,0-.89-1.31,5.67,5.67,0,0,0-.66-.53c-.23-.16-.48-.31-.72-.46-1-.56-2.13-1-3.17-1.55a3.46,3.46,0,0,1-.74-.53,1.39,1.39,0,0,1-.4-.82A8.3,8.3,0,0,1,1072.37,507.69Z"/><path class="cls-23" d="M1076.88,517.18a3.11,3.11,0,0,1,1.39,2.26,2.49,2.49,0,0,1-.34,1.35,1,1,0,0,1-.25.31,1.55,1.55,0,0,1-.32.2,2.92,2.92,0,0,1-.7.25,6.64,6.64,0,0,1-2.81-.15,17.2,17.2,0,0,1-2.62-.89c-.42-.18-.82-.39-1.24-.59a5.54,5.54,0,0,1-1.18-.76A6.69,6.69,0,0,1,1067,517a5.61,5.61,0,0,1-.44-1.31,5.34,5.34,0,0,1,0-.69l0-.67a19.16,19.16,0,0,1,.39-2.63c-.07.88-.11,1.76-.11,2.64l0,.65a4.55,4.55,0,0,0,.09.63,4.41,4.41,0,0,0,.47,1.17,6.66,6.66,0,0,0,1.72,1.91,5.71,5.71,0,0,0,1.09.69c.41.18.81.39,1.22.56a17.54,17.54,0,0,0,2.52.89,6.72,6.72,0,0,0,2.59.24,1.52,1.52,0,0,0,1-.51,2.35,2.35,0,0,0,.38-1.17,2.4,2.4,0,0,0-.3-1.22A4.49,4.49,0,0,0,1076.88,517.18Z"/><path class="cls-23" d="M1076.89,521.35a2.24,2.24,0,0,1,0,1.91,1.12,1.12,0,0,1-.3.44,1.57,1.57,0,0,1-.45.29,3.33,3.33,0,0,1-1,.25,9.15,9.15,0,0,1-3.93-.74c-.61-.25-1.22-.51-1.8-.81a6,6,0,0,1-1.63-1.16,6.08,6.08,0,0,1-1.19-1.58,4,4,0,0,1-.44-1.87,5.31,5.31,0,0,0,1.93,3.13,6.39,6.39,0,0,0,1.58,1c.58.28,1.17.53,1.76.76a15.42,15.42,0,0,0,1.82.59,7.07,7.07,0,0,0,1.87.25,2.91,2.91,0,0,0,.89-.15,1.31,1.31,0,0,0,.39-.2.94.94,0,0,0,.25-.32A2.27,2.27,0,0,0,1076.89,521.35Z"/><path class="cls-23" d="M1075.54,524a2.21,2.21,0,0,1,.76,1.58,2.06,2.06,0,0,1-.22.9,1.13,1.13,0,0,1-.12.21,1.26,1.26,0,0,1-.2.2,1.91,1.91,0,0,1-.45.23,4,4,0,0,1-1.87.11,8.82,8.82,0,0,1-1.77-.44,14.22,14.22,0,0,1-1.66-.7,7.81,7.81,0,0,1-.8-.43,5,5,0,0,1-.72-.56A4.11,4.11,0,0,1,1067,522a4.63,4.63,0,0,0,1.83,2.77,6.58,6.58,0,0,0,.7.47,7.85,7.85,0,0,0,.77.37c.52.24,1.06.46,1.61.65a9.82,9.82,0,0,0,1.65.44,3.94,3.94,0,0,0,1.64,0,1.6,1.6,0,0,0,.35-.15l.13-.09.11-.16a1.73,1.73,0,0,0,.26-.74,1.82,1.82,0,0,0-.07-.8A3.25,3.25,0,0,0,1075.54,524Z"/></g></g></g></svg>